#N canvas 66 89 1281 690 10;
#X obj 275 283 osc~;
#X obj 260 347 +~;
#X obj 260 371 osc~;
#X obj 13 6 inlet;
#X obj 521 660 outlet~;
#X obj 13 41 unpack 0 0;
#X obj 521 630 *~;
#X obj 536 585 vline~;
#X obj 730 517 \$1;
#X obj 275 308 *~ 1000;
#X obj 151 120 bng 15 250 50 0 empty empty empty 17 7 0 10 -262144
-1 -1;
#X obj 74 120 bng 15 250 50 0 empty empty empty 17 7 0 10 -262144 -1
-1;
#X floatatom 74 68 5 0 0 0 - - -, f 5;
#X obj 74 90 sel 1 0;
#X obj 275 221 bng 15 250 50 0 empty empty empty 17 7 0 10 -262144
-1 -1;
#X floatatom 315 219 5 0 0 0 - - -, f 5;
#X obj 275 250 * 1, f 5;
#X obj 302 158 bng 15 250 50 0 empty empty empty 17 7 0 10 -262144
-1 -1;
#X obj 13 67 s freq-\$1;
#X obj 188 182 r freq-\$1;
#X obj 151 143 s noteOff-\$1;
#X obj 74 143 s noteOn-\$1;
#X obj 730 466 r noteOff-\$1;
#X obj 536 409 r noteOn-\$1;
#N canvas 791 321 215 479 Mod_ADSR_1 0;
#X obj 39 365 \$1;
#X obj 16 428 line, f 13;
#X obj 16 78 pack \$1 \$2 \$3;
#X msg 16 101 \$2 \$3;
#X obj 53 31 r fmOpOneAmt;
#X obj 91 53 r fmOpOneAttack;
#X obj 54 341 r fmOpOneRelease;
#X obj 16 10 r noteOn-\$1;
#X obj 39 320 r noteOff-\$1;
#X msg 39 392 0 \$1;
#X obj 32 142 r noteOn-\$1;
#X obj 32 186 delay 1;
#X obj 107 234 r fmOpOneDecay;
#X obj 71 164 r fmOpOneAttack;
#X obj 32 211 bng 15 250 50 0 empty empty empty 17 7 0 10 -262144 -1
-1;
#X obj 69 213 r fmOpOneSustain;
#X obj 32 256 pack \$1 \$2 \$3;
#X msg 32 280 \$2 \$3;
#X obj 16 451 outlet;
#X connect 0 0 9 0;
#X connect 1 0 18 0;
#X connect 2 0 3 0;
#X connect 3 0 1 0;
#X connect 4 0 2 1;
#X connect 5 0 2 2;
#X connect 6 0 0 1;
#X connect 7 0 2 0;
#X connect 8 0 0 0;
#X connect 9 0 1 0;
#X connect 10 0 11 0;
#X connect 11 0 14 0;
#X connect 12 0 16 2;
#X connect 13 0 11 1;
#X connect 14 0 16 0;
#X connect 15 0 16 1;
#X connect 16 0 17 0;
#X connect 17 0 1 0;
#X restore 314 284 pd Mod_ADSR_1;
#X obj 567 434 r envAttack;
#X obj 598 454 r envDecay;
#X obj 629 474 r envSustain;
#X obj 745 492 r envRelease;
#X msg 730 540 0 \$1;
#X obj 485 276 osc~;
#X obj 470 347 +~;
#X obj 470 371 osc~;
#X obj 485 308 *~ 1000;
#X obj 485 221 bng 15 250 50 0 empty empty empty 17 7 0 10 -262144
-1 -1;
#X floatatom 525 219 5 0 0 0 - - -, f 5;
#X obj 485 250 * 1, f 5;
#X obj 512 189 * 1;
#X obj 512 158 bng 15 250 50 0 empty empty empty 17 7 0 10 -262144
-1 -1;
#X obj 414 182 r freq-\$1;
#N canvas 791 321 215 479 Mod_ADSR_1 0;
#X obj 39 365 \$1;
#X obj 16 428 line, f 13;
#X obj 16 78 pack \$1 \$2 \$3;
#X msg 16 101 \$2 \$3;
#X obj 16 10 r noteOn-\$1;
#X obj 39 320 r noteOff-\$1;
#X msg 39 392 0 \$1;
#X obj 32 142 r noteOn-\$1;
#X obj 32 186 delay 1;
#X obj 32 211 bng 15 250 50 0 empty empty empty 17 7 0 10 -262144 -1
-1;
#X obj 32 256 pack \$1 \$2 \$3;
#X msg 32 280 \$2 \$3;
#X obj 16 451 outlet;
#X obj 53 31 r fmOpTwoAmt;
#X obj 91 53 r fmOpTwoAttack;
#X obj 71 164 r fmOpTwoAttack;
#X obj 69 213 r fmOpTwoSustain;
#X obj 107 234 r fmOpTwoDecay;
#X obj 54 341 r fmOpTwoRelease;
#X connect 0 0 6 0;
#X connect 1 0 12 0;
#X connect 2 0 3 0;
#X connect 3 0 1 0;
#X connect 4 0 2 0;
#X connect 5 0 0 0;
#X connect 6 0 1 0;
#X connect 7 0 8 0;
#X connect 8 0 9 0;
#X connect 9 0 10 0;
#X connect 10 0 11 0;
#X connect 11 0 1 0;
#X connect 13 0 2 1;
#X connect 14 0 2 2;
#X connect 15 0 8 1;
#X connect 16 0 10 1;
#X connect 17 0 10 2;
#X connect 18 0 0 1;
#X restore 524 277 pd Mod_ADSR_1;
#X obj 485 69 r fmOpTwoPitch;
#X obj 814 314 vsl 15 50 0.5 1.1 0 0 empty empty empty 0 -9 0 10 -262144
-1 -1 4134 1;
#X obj 817 87 hsl 128 15 0 10 0 0 empty empty empty -2 -8 0 10 -262144
-1 -1 7100 1;
#X obj 814 233 *~ 0.5, f 11;
#X obj 877 172 vsl 15 50 0 0.05 0 0 empty empty empty 0 -9 0 10 -262144
-1 -1 617 1;
#X obj 814 257 snapshot~;
#X text 894 199 LFO Ammount 0-1;
#X text 824 29 lfo one;
#X text 890 56 LFO FREQ 0-10;
#X obj 877 146 r lfoOneAmt;
#X obj 814 55 r lfoOneFreq;
#X obj 814 123 osc~ 0.05;
#X obj 759 189 r snap;
#X obj 814 281 + 1;
#X floatatom 896 383 5 0 0 0 - - -, f 5;
#X obj 302 189 * 1;
#X obj 275 69 r fmOpOnePitch;
#X obj 322 122 r lfoOne-\$1;
#X obj 814 381 s lfoOne-\$1;
#X obj 1064 314 vsl 15 50 0.5 1.1 0 0 empty empty empty 0 -9 0 10 -262144
-1 -1 4163 1;
#X obj 1067 87 hsl 128 15 0 10 0 0 empty empty empty -2 -8 0 10 -262144
-1 -1 7500 1;
#X obj 1064 233 *~ 0.5, f 11;
#X obj 1127 172 vsl 15 50 0 0.05 0 0 empty empty empty 0 -9 0 10 -262144
-1 -1 1042 1;
#X obj 1064 257 snapshot~;
#X text 1144 199 LFO Ammount 0-1;
#X text 1074 29 lfo one;
#X text 1140 56 LFO FREQ 0-10;
#X obj 1064 123 osc~ 0.05;
#X obj 1009 189 r snap;
#X obj 1064 281 + 1;
#X floatatom 1146 383 5 0 0 0 - - -, f 5;
#X obj 1064 55 r lfoTwoFreq;
#X obj 1127 146 r lfoTwoAmt;
#X obj 1064 381 s lfoTwo-\$1;
#X obj 530 113 r lfoTwo-\$1;
#X obj 394 357 *~;
#X obj 412 274 r crossMod;
#X obj 623 361 r envAttackLev;
#X obj 536 499 pack \$1 \$2 \$3 \$4 \$5;
#X msg 536 537 \$2 \$3 \, \$5 \$4 \$3;
#X connect 0 0 9 0;
#X connect 1 0 2 0;
#X connect 2 0 6 0;
#X connect 3 0 5 0;
#X connect 5 0 18 0;
#X connect 5 1 12 0;
#X connect 6 0 4 0;
#X connect 7 0 6 1;
#X connect 8 0 29 0;
#X connect 9 0 1 1;
#X connect 9 0 76 0;
#X connect 10 0 20 0;
#X connect 11 0 21 0;
#X connect 12 0 13 0;
#X connect 13 0 11 0;
#X connect 13 1 10 0;
#X connect 14 0 16 0;
#X connect 16 0 0 0;
#X connect 17 0 56 0;
#X connect 19 0 16 0;
#X connect 19 0 1 0;
#X connect 22 0 8 0;
#X connect 23 0 79 0;
#X connect 24 0 9 1;
#X connect 25 0 79 2;
#X connect 26 0 79 3;
#X connect 27 0 79 4;
#X connect 28 0 8 1;
#X connect 29 0 7 0;
#X connect 30 0 33 0;
#X connect 31 0 32 0;
#X connect 32 0 6 0;
#X connect 32 0 76 0;
#X connect 33 0 31 1;
#X connect 34 0 36 0;
#X connect 36 0 30 0;
#X connect 37 0 36 1;
#X connect 37 0 34 0;
#X connect 37 0 35 0;
#X connect 38 0 37 0;
#X connect 39 0 36 0;
#X connect 39 0 31 0;
#X connect 40 0 33 1;
#X connect 41 0 34 0;
#X connect 41 0 37 0;
#X connect 42 0 55 0;
#X connect 42 0 59 0;
#X connect 43 0 52 0;
#X connect 44 0 46 0;
#X connect 45 0 44 1;
#X connect 46 0 54 0;
#X connect 50 0 45 0;
#X connect 51 0 43 0;
#X connect 52 0 44 0;
#X connect 53 0 46 0;
#X connect 54 0 42 0;
#X connect 56 0 16 1;
#X connect 56 0 14 0;
#X connect 56 0 15 0;
#X connect 57 0 14 0;
#X connect 57 0 56 0;
#X connect 58 0 56 1;
#X connect 58 0 17 0;
#X connect 60 0 71 0;
#X connect 60 0 74 0;
#X connect 61 0 68 0;
#X connect 62 0 64 0;
#X connect 63 0 62 1;
#X connect 64 0 70 0;
#X connect 68 0 62 0;
#X connect 69 0 64 0;
#X connect 70 0 60 0;
#X connect 72 0 61 0;
#X connect 73 0 63 0;
#X connect 75 0 38 0;
#X connect 75 0 37 1;
#X connect 76 0 1 1;
#X connect 77 0 76 1;
#X connect 78 0 79 1;
#X connect 79 0 80 0;
#X connect 80 0 7 0;
