#N canvas 560 23 811 774 10;
#X obj 494 120 + 1;
#X obj 465 145 sel 0 1;
#X obj 465 165 bng 15 250 50 0 empty empty empty 17 7 0 10 -262144
-1 -1;
#X obj 465 120 f;
#X obj 30 746 table loop-\$1 1e+06;
#X obj 375 507 tabwrite~ loop-\$1 700000;
#X msg 29 708 \; loop-\$1 const 0 \;;
#X obj 29 664 bng 15 250 50 0 empty empty empty 17 7 0 10 -262144 -1
-1;
#X obj 29 686 \$1;
#X obj 29 610 r clear-\$1;
#X obj 403 477 r~ input;
#X obj 30 583 s~ lp-out-\$1;
#X obj 465 32 r lp-trig-\$1;
#X obj 619 189 f;
#X obj 648 189 + 1;
#X msg 634 66 0;
#X obj 619 212 mod 2;
#X obj 634 41 r clear-\$1;
#X obj 619 237 s mute-\$1;
#X obj 30 219 *~;
#X obj 45 195 vline~;
#X msg 45 174 \$1 15;
#X obj 45 107 r mute-\$1;
#X msg 63 151 1;
#X obj 63 130 r clear-\$1;
#X obj 30 399 *~;
#X obj 45 378 vline~;
#X obj 45 244 r lp-vol-\$1;
#X msg 45 345 \$1 15;
#X msg 100 290 1;
#X obj 100 266 loadbang;
#X obj 375 286 r f;
#X obj 334 186 r tapOne;
#X obj 30 49 r f;
#X msg 375 438 start;
#X msg 416 438 stop;
#X obj 404 357 + 1;
#X obj 375 382 sel 0 1;
#X obj 375 414 bng 15 250 50 0 empty empty empty 17 7 0 10 -262144
-1 -1;
#X obj 394 414 bng 15 250 50 0 empty empty empty 17 7 0 10 -262144
-1 -1;
#X obj 375 357 f;
#X obj 30 84 tabplay~ loop-\$1;
#X msg 490 285 0;
#X obj 375 319 spigot 0;
#X msg 420 263 1;
#X obj 490 263 r clear-\$1;
#X obj 334 263 spigot 1;
#X obj 379 209 r clearAll;
#X msg 379 235 1;
#X obj 484 165 bng 15 250 50 0 empty empty empty 17 7 0 10 -262144
-1 -1;
#X obj 453 239 delay 1;
#X msg 453 263 0;
#X obj 488 463 s lp-done-\$1;
#X obj 480 53 r lp-done-\$1;
#X obj 619 169 bng 15 250 50 0 empty empty empty 17 7 0 10 -262144
-1 -1;
#X obj 658 412 spigot 0;
#X obj 687 283 r ms;
#X msg 687 305 1;
#X obj 725 283 r clearAll;
#X msg 725 305 0;
#X obj 529 571 \$1;
#X obj 649 547 r clear-\$1;
#X obj 649 568 \$1;
#X obj 427 659 s comPortMsg;
#X obj 413 531 r clear-\$1;
#X msg 529 594 print -wav_\$1_1/;
#X msg 649 594 print -wav_\$1_0/;
#X obj 530 519 r lp-done-\$1;
#X obj 530 544 bng 15 250 50 0 empty empty empty 17 7 0 10 -262144
-1 -1;
#X obj 126 9 r clear-\$1;
#X msg 74 55 stop;
#X obj 74 10 r stop;
#X msg 488 438 10;
#X obj 134 414 \$1;
#X obj 134 309 r save;
#X obj 134 343 bng 15 250 50 0 empty empty empty 17 7 0 10 -262144
-1 -1;
#X obj 214 316 r lp-done-\$1;
#X obj 214 414 \$1;
#X msg 239 386 0;
#X obj 134 450 s vol-\$1;
#X obj 214 450 s lpd-\$1;
#X text 127 471 Special vars just for save;
#X msg 480 81 10;
#X msg 214 339 10;
#X obj 160 267 r clear-\$1;
#X obj 239 363 r clear-\$1;
#X obj 211 562 r mute-\$1;
#X obj 211 591 pack \$2 \$1;
#X msg 211 616 print -mut_\$2_\$1/;
#X obj 176 533 r lp-done-\$1;
#X msg 176 558 1;
#X msg 274 562 0;
#X obj 274 533 r clear-\$1;
#X msg 658 461 print -sta_p_\$1/;
#X obj 658 437 \$1;
#X msg 339 602 print -sta_r_\$1/;
#X obj 339 581 \$1;
#X msg 400 580 print -sta_d_\$1/;
#X obj 400 559 \$1;
#X obj 45 536 vline~;
#X obj 30 556 *~;
#X obj 45 458 r clear-\$1;
#X msg 81 508 1 15;
#X msg 45 507 0 15;
#X obj 81 486 delay 15;
#X obj 74 35 delay 15;
#X obj 29 643 delay 15;
#X connect 0 0 3 1;
#X connect 1 0 2 0;
#X connect 1 1 49 0;
#X connect 1 2 54 0;
#X connect 2 0 44 0;
#X connect 2 0 55 0;
#X connect 3 0 0 0;
#X connect 3 0 1 0;
#X connect 7 0 8 0;
#X connect 8 0 6 0;
#X connect 9 0 106 0;
#X connect 10 0 5 0;
#X connect 12 0 3 0;
#X connect 13 0 14 0;
#X connect 13 0 16 0;
#X connect 14 0 13 1;
#X connect 15 0 3 1;
#X connect 15 0 13 1;
#X connect 16 0 18 0;
#X connect 17 0 15 0;
#X connect 19 0 25 0;
#X connect 20 0 19 1;
#X connect 21 0 20 0;
#X connect 22 0 21 0;
#X connect 23 0 21 0;
#X connect 24 0 23 0;
#X connect 25 0 100 0;
#X connect 26 0 25 1;
#X connect 27 0 28 0;
#X connect 27 0 73 0;
#X connect 28 0 26 0;
#X connect 29 0 28 0;
#X connect 29 0 73 0;
#X connect 30 0 29 0;
#X connect 31 0 43 0;
#X connect 32 0 46 0;
#X connect 33 0 41 0;
#X connect 34 0 5 0;
#X connect 35 0 5 0;
#X connect 36 0 40 1;
#X connect 37 0 38 0;
#X connect 37 1 39 0;
#X connect 38 0 34 0;
#X connect 38 0 90 0;
#X connect 38 0 96 0;
#X connect 39 0 35 0;
#X connect 39 0 72 0;
#X connect 39 0 98 0;
#X connect 40 0 36 0;
#X connect 40 0 37 0;
#X connect 41 0 19 0;
#X connect 42 0 40 1;
#X connect 42 0 43 1;
#X connect 43 0 40 0;
#X connect 44 0 43 1;
#X connect 45 0 42 0;
#X connect 46 0 43 0;
#X connect 47 0 48 0;
#X connect 48 0 46 1;
#X connect 49 0 50 0;
#X connect 49 0 98 0;
#X connect 50 0 51 0;
#X connect 51 0 43 1;
#X connect 53 0 82 0;
#X connect 54 0 13 0;
#X connect 55 0 94 0;
#X connect 56 0 57 0;
#X connect 57 0 55 1;
#X connect 58 0 59 0;
#X connect 59 0 55 1;
#X connect 60 0 65 0;
#X connect 61 0 62 0;
#X connect 62 0 66 0;
#X connect 64 0 98 0;
#X connect 65 0 63 0;
#X connect 66 0 63 0;
#X connect 67 0 68 0;
#X connect 68 0 60 0;
#X connect 69 0 105 0;
#X connect 70 0 41 0;
#X connect 71 0 105 0;
#X connect 72 0 52 0;
#X connect 73 0 79 0;
#X connect 74 0 75 0;
#X connect 75 0 73 0;
#X connect 75 0 77 0;
#X connect 76 0 83 0;
#X connect 77 0 80 0;
#X connect 78 0 77 0;
#X connect 82 0 3 1;
#X connect 83 0 77 0;
#X connect 84 0 29 0;
#X connect 85 0 78 0;
#X connect 86 0 87 0;
#X connect 87 0 88 0;
#X connect 88 0 63 0;
#X connect 89 0 90 0;
#X connect 90 0 87 0;
#X connect 91 0 87 0;
#X connect 92 0 91 0;
#X connect 93 0 63 0;
#X connect 94 0 93 0;
#X connect 95 0 63 0;
#X connect 96 0 95 0;
#X connect 97 0 63 0;
#X connect 98 0 97 0;
#X connect 99 0 100 1;
#X connect 100 0 11 0;
#X connect 101 0 103 0;
#X connect 101 0 104 0;
#X connect 102 0 99 0;
#X connect 103 0 99 0;
#X connect 104 0 102 0;
#X connect 105 0 70 0;
#X connect 106 0 7 0;
