#N canvas 272 401 551 280 10;
#X obj 53 125 spigot;
#X obj 53 95 == \$1;
#X obj 53 47 inlet;
#X text 207 63 Play on Screen;
#X obj 106 199 outlet~;
#X obj 106 171 oneshot \$3;
#X obj 163 146 inlet;
#X text 20 23 midi note #;
#X text 199 145 pass through pad velocity;
#X msg 203 107 1;
#X obj 203 83 r btn\$2;
#X obj 106 102 r \$2;
#X connect 0 0 5 0;
#X connect 1 0 0 1;
#X connect 1 0 0 0;
#X connect 2 0 1 0;
#X connect 5 0 4 0;
#X connect 6 0 5 1;
#X connect 9 0 5 0;
#X connect 10 0 9 0;
#X connect 11 0 5 0;
