#N canvas 445 69 776 546 10;
#X obj 393 412 *~;
#X obj 408 386 vline~;
#X obj 61 54 unpack 0 0;
#X obj 61 230 phasor~;
#X obj 61 24 inlet;
#X obj 393 443 outlet~;
#X obj 359 320 vline~;
#X obj 171 223 phasor~;
#X msg 694 318 0 200;
#X msg 517 296 0 200;
#X obj 302 274 noise~;
#X obj 302 308 *~ 0.1;
#X obj 396 38 sel 1 0;
#X obj 61 268 expr~ $v1 > $v2;
#X obj 277 224 line;
#X msg 313 185 0.2 500;
#X msg 253 185 0.7 2000;
#X obj 334 364 vcf~ 5, f 9;
#X obj 241 275 *~ 2;
#X obj 241 300 -~ 1;
#X obj 169 179 * 0.99;
#X msg 359 295 20000 10 \, 10000 1000 400;
#X msg 561 317 0.3 100 \, 0.2 1000 200;
#X obj 153 134 line;
#X obj 193 418 vline~;
#X obj 180 443 snapshot~;
#X msg 254 422 0;
#X obj 197 146 bng 15 250 50 0 empty empty empty 17 7 0 10 -262144
-1 -1;
#X msg 136 98 \$1 50;
#X msg 193 394 0.99 1 \, 0.97 5000 1000;
#X obj 121 384 r snap;
#X connect 0 0 5 0;
#X connect 1 0 0 1;
#X connect 2 0 28 0;
#X connect 2 1 12 0;
#X connect 3 0 13 0;
#X connect 4 0 2 0;
#X connect 6 0 17 1;
#X connect 7 0 18 0;
#X connect 8 0 1 0;
#X connect 9 0 6 0;
#X connect 10 0 11 0;
#X connect 11 0 17 0;
#X connect 12 0 21 0;
#X connect 12 0 22 0;
#X connect 12 0 16 0;
#X connect 12 0 29 0;
#X connect 12 1 8 0;
#X connect 12 1 9 0;
#X connect 12 1 15 0;
#X connect 12 1 26 0;
#X connect 13 0 17 0;
#X connect 14 0 13 1;
#X connect 15 0 14 0;
#X connect 16 0 14 0;
#X connect 17 0 0 0;
#X connect 18 0 19 0;
#X connect 19 0 17 0;
#X connect 20 0 7 0;
#X connect 21 0 6 0;
#X connect 22 0 1 0;
#X connect 23 0 20 0;
#X connect 23 0 3 0;
#X connect 24 0 25 0;
#X connect 25 0 20 1;
#X connect 25 0 27 0;
#X connect 26 0 24 0;
#X connect 27 0 20 0;
#X connect 28 0 23 0;
#X connect 29 0 24 0;
#X connect 30 0 25 0;
