#N canvas 122 134 872 658 10;
#X obj 393 502 *~;
#X obj 408 476 vline~;
#X obj 61 54 unpack 0 0;
#X obj 61 24 inlet;
#X obj 393 533 outlet~;
#X obj 359 320 vline~;
#X obj 396 38 sel 1 0;
#X obj 61 253 *~ 2;
#X obj 61 275 -~ 1;
#X obj 166 187 osc~;
#X obj 61 230 phasor~;
#X msg 517 296 0 800;
#X obj 151 236 +~;
#X obj 151 259 osc~;
#X msg 704 318 0 500;
#X obj 166 160 * 2;
#X obj 284 177 osc~;
#X obj 251 236 +~;
#X obj 251 259 osc~;
#X obj 279 212 *~ 200;
#X obj 61 302 *~ 0.9;
#X obj 166 212 *~ 500;
#X obj 284 150 * 2;
#X obj 338 420 *~ 0.5;
#X obj 240 183 * 0.98;
#X msg 560 318 0.7 10 \, 0.1 900 10;
#X obj 427 380 *~ 0.5;
#X msg 359 295 6000 10 \, 1000 1000 10;
#X obj 334 364 vcf~ 10, f 9;
#X connect 0 0 4 0;
#X connect 1 0 0 1;
#X connect 2 0 10 0;
#X connect 2 0 15 0;
#X connect 2 0 12 0;
#X connect 2 0 22 0;
#X connect 2 0 24 0;
#X connect 2 1 6 0;
#X connect 3 0 2 0;
#X connect 5 0 28 1;
#X connect 6 0 27 0;
#X connect 6 0 25 0;
#X connect 6 1 14 0;
#X connect 6 1 11 0;
#X connect 7 0 8 0;
#X connect 8 0 20 0;
#X connect 9 0 21 0;
#X connect 10 0 7 0;
#X connect 11 0 5 0;
#X connect 12 0 13 0;
#X connect 13 0 23 0;
#X connect 13 0 28 0;
#X connect 14 0 1 0;
#X connect 15 0 9 0;
#X connect 16 0 19 0;
#X connect 17 0 18 0;
#X connect 18 0 23 0;
#X connect 18 0 28 0;
#X connect 19 0 17 1;
#X connect 20 0 28 0;
#X connect 21 0 12 1;
#X connect 22 0 16 0;
#X connect 23 0 0 0;
#X connect 24 0 17 0;
#X connect 25 0 1 0;
#X connect 26 0 0 0;
#X connect 27 0 5 0;
#X connect 28 1 26 0;
