#N canvas 0 22 766 598 10;
#X obj 393 502 *~;
#X obj 408 476 vline~;
#X obj 61 54 unpack 0 0;
#X obj 61 24 inlet;
#X obj 393 533 outlet~;
#X obj 359 332 vline~;
#X obj 396 38 sel 1 0;
#X obj 228 223 *~ 2;
#X obj 228 245 -~ 1;
#X obj 228 200 phasor~;
#X msg 704 318 0 500;
#X obj 338 420 *~ 0.5;
#X obj 402 411 *~ 0.5;
#X obj 334 364 vcf~ 10, f 9;
#X obj 148 233 *~ 2;
#X obj 148 255 -~ 1;
#X obj 148 210 phasor~;
#X msg 516 299 0 100;
#X obj 148 282 *~;
#X obj 148 187 * 0.99;
#X msg 560 318 1 10 \, 0.5 900 10;
#X msg 359 295 6000 1000 \, 800 1500 1500;
#X obj 186 333 noise~;
#X obj 187 366 *~ 0.05;
#X obj 227 126 * 0.5;
#X connect 0 0 4 0;
#X connect 1 0 0 1;
#X connect 2 0 24 0;
#X connect 2 1 6 0;
#X connect 3 0 2 0;
#X connect 5 0 13 1;
#X connect 6 0 21 0;
#X connect 6 0 20 0;
#X connect 6 1 10 0;
#X connect 6 1 17 0;
#X connect 7 0 8 0;
#X connect 7 0 18 1;
#X connect 8 0 13 0;
#X connect 9 0 7 0;
#X connect 10 0 1 0;
#X connect 11 0 0 0;
#X connect 12 0 0 0;
#X connect 13 0 11 0;
#X connect 13 1 12 0;
#X connect 14 0 15 0;
#X connect 15 0 18 0;
#X connect 16 0 14 0;
#X connect 17 0 5 0;
#X connect 18 0 13 0;
#X connect 19 0 16 0;
#X connect 20 0 1 0;
#X connect 21 0 5 0;
#X connect 22 0 23 0;
#X connect 23 0 13 0;
#X connect 24 0 9 0;
#X connect 24 0 19 0;
